<?xml version="1.0" standalone="no"?>
<!DOCTYPE svg PUBLIC "-//W3C//DTD SVG 20010904//EN"
 "http://www.w3.org/TR/2001/REC-SVG-20010904/DTD/svg10.dtd">
<svg version="1.0" xmlns="http://www.w3.org/2000/svg"
 width="700.000000pt" height="700.000000pt" viewBox="0 0 700.000000 700.000000"
 preserveAspectRatio="xMidYMid meet">
<metadata>
Created by potrace 1.11, written by Peter Selinger 2001-2013
</metadata>
<g transform="translate(0.000000,700.000000) scale(0.100000,-0.100000)"
fill="#000000" stroke="none">
<path d="M703 5002 l-33 -3 0 -1674 0 -1673 220 -1 220 0 2 1396 3 1397 34
-65 c18 -35 50 -95 71 -134 20 -38 63 -119 95 -180 55 -105 85 -162 174 -327
21 -40 62 -118 91 -173 29 -55 65 -122 80 -150 15 -27 55 -104 90 -170 34 -66
77 -147 95 -180 34 -63 91 -171 183 -345 30 -58 63 -118 72 -135 10 -16 48
-88 85 -160 37 -71 80 -152 95 -180 15 -27 56 -104 91 -170 34 -66 85 -160
111 -210 26 -49 62 -118 80 -152 l32 -61 305 0 306 0 0 1674 0 1674 -35 1
c-39 0 -328 0 -375 0 l-30 -1 0 -1395 c0 -767 -2 -1395 -5 -1395 -3 1 -17 26
-33 58 -15 31 -50 100 -78 152 -82 153 -133 248 -189 355 -52 98 -93 176 -162
305 -19 36 -61 115 -93 175 -32 61 -74 142 -95 180 -21 39 -61 115 -90 170
-29 55 -65 123 -80 150 -15 28 -55 104 -90 170 -35 66 -80 152 -100 190 -21
39 -77 144 -125 235 -48 91 -127 239 -175 330 -48 91 -104 197 -125 235 -20
39 -40 74 -45 78 -7 8 -507 16 -577 9z"/>
<path d="M4140 5000 l-35 -5 0 -1670 0 -1670 228 -2 227 -2 -1 617 c0 339 0
658 1 709 l0 92 297 -1 c301 -1 376 -8 488 -44 117 -38 223 -132 327 -288 47
-71 293 -539 306 -581 2 -5 58 -120 126 -255 l124 -245 241 -2 c132 -1 241 0
241 3 0 15 -520 1040 -570 1123 -135 222 -269 366 -399 423 l-43 20 80 32
c273 110 427 307 479 611 2 17 6 87 7 157 13 619 -331 948 -1020 974 -186 8
-1059 10 -1104 4z m1220 -394 c114 -26 186 -63 278 -141 34 -29 88 -114 111
-175 45 -118 52 -335 16 -460 -52 -176 -181 -304 -355 -353 -100 -28 -122 -30
-487 -34 l-363 -5 0 69 c-1 84 -1 645 0 921 l0 204 363 -5 c295 -3 376 -7 437
-21z"/>
</g>
</svg>
